<svg id="visual" viewBox="0 0 960 300" width="960" height="300" xmlns="http://www.w3.org/2000/svg" xmlns:xlink="http://www.w3.org/1999/xlink" version="1.1"><rect x="0" y="0" width="960" height="300" fill="#23133a"></rect><g transform="translate(480.6365406519995 144.39226348904762)"><path d="M55.4 -71.1C72.9 -63.6 88.7 -48.8 93 -31.3C97.3 -13.7 90 6.6 79.8 22.2C69.7 37.9 56.6 48.9 42.8 59.7C29 70.6 14.5 81.3 -3.3 85.9C-21.2 90.5 -42.3 88.9 -56.7 78.3C-71.2 67.6 -78.9 47.9 -86.1 27.5C-93.4 7.2 -100.2 -13.8 -91.3 -26.1C-82.4 -38.3 -57.7 -41.9 -39.9 -49.3C-22 -56.7 -11 -67.8 4 -73.3C19 -78.8 38 -78.6 55.4 -71.1" fill="#3a2954"></path></g></svg>