<svg id="visual" viewBox="0 0 900 600" width="900" height="600" xmlns="http://www.w3.org/2000/svg" xmlns:xlink="http://www.w3.org/1999/xlink" version="1.1"><rect x="0" y="0" width="900" height="600" fill="#44325e"></rect><defs><linearGradient id="grad1_0" x1="33.3%" y1="100%" x2="100%" y2="0%"><stop offset="20%" stop-color="#c70a56" stop-opacity="1"></stop><stop offset="80%" stop-color="#c70a56" stop-opacity="1"></stop></linearGradient></defs><defs><linearGradient id="grad1_1" x1="33.3%" y1="100%" x2="100%" y2="0%"><stop offset="20%" stop-color="#c70a56" stop-opacity="1"></stop><stop offset="80%" stop-color="#9e2369" stop-opacity="1"></stop></linearGradient></defs><defs><linearGradient id="grad1_2" x1="33.3%" y1="100%" x2="100%" y2="0%"><stop offset="20%" stop-color="#6f306c" stop-opacity="1"></stop><stop offset="80%" stop-color="#9e2369" stop-opacity="1"></stop></linearGradient></defs><defs><linearGradient id="grad1_3" x1="33.3%" y1="100%" x2="100%" y2="0%"><stop offset="20%" stop-color="#6f306c" stop-opacity="1"></stop><stop offset="80%" stop-color="#44325e" stop-opacity="1"></stop></linearGradient></defs><defs><linearGradient id="grad2_0" x1="0%" y1="100%" x2="66.7%" y2="0%"><stop offset="20%" stop-color="#c70a56" stop-opacity="1"></stop><stop offset="80%" stop-color="#c70a56" stop-opacity="1"></stop></linearGradient></defs><defs><linearGradient id="grad2_1" x1="0%" y1="100%" x2="66.7%" y2="0%"><stop offset="20%" stop-color="#9e2369" stop-opacity="1"></stop><stop offset="80%" stop-color="#c70a56" stop-opacity="1"></stop></linearGradient></defs><defs><linearGradient id="grad2_2" x1="0%" y1="100%" x2="66.7%" y2="0%"><stop offset="20%" stop-color="#9e2369" stop-opacity="1"></stop><stop offset="80%" stop-color="#6f306c" stop-opacity="1"></stop></linearGradient></defs><defs><linearGradient id="grad2_3" x1="0%" y1="100%" x2="66.7%" y2="0%"><stop offset="20%" stop-color="#44325e" stop-opacity="1"></stop><stop offset="80%" stop-color="#6f306c" stop-opacity="1"></stop></linearGradient></defs><g transform="translate(900, 600)"><path d="M-270.4 0C-269.6 -24.2 -268.7 -48.5 -261.2 -70C-253.7 -91.5 -239.6 -110.4 -226.9 -131C-214.2 -151.6 -202.9 -174 -181.7 -181.7C-160.5 -189.4 -129.3 -182.5 -108.5 -187.9C-87.7 -193.4 -77.2 -211.2 -60.8 -227C-44.5 -242.8 -22.2 -256.6 0 -270.4L0 0Z" fill="#583267"></path><path d="M-202.8 0C-202.2 -18.2 -201.5 -36.3 -195.9 -52.5C-190.3 -68.6 -179.7 -82.8 -170.2 -98.3C-160.7 -113.7 -152.2 -130.5 -136.3 -136.3C-120.4 -142.1 -97 -136.9 -81.4 -140.9C-65.8 -145 -57.9 -158.4 -45.6 -170.2C-33.3 -182.1 -16.7 -192.5 0 -202.8L0 0Z" fill="#862b6d"></path><path d="M-135.2 0C-134.8 -12.1 -134.3 -24.2 -130.6 -35C-126.9 -45.8 -119.8 -55.2 -113.4 -65.5C-107.1 -75.8 -101.5 -87 -90.9 -90.9C-80.3 -94.7 -64.7 -91.2 -54.3 -94C-43.8 -96.7 -38.6 -105.6 -30.4 -113.5C-22.2 -121.4 -11.1 -128.3 0 -135.2L0 0Z" fill="#b31762"></path><path d="M-67.6 0C-67.4 -6.1 -67.2 -12.1 -65.3 -17.5C-63.4 -22.9 -59.9 -27.6 -56.7 -32.8C-53.6 -37.9 -50.7 -43.5 -45.4 -45.4C-40.1 -47.4 -32.3 -45.6 -27.1 -47C-21.9 -48.3 -19.3 -52.8 -15.2 -56.7C-11.1 -60.7 -5.6 -64.2 0 -67.6L0 0Z" fill="#c70a56"></path></g><g transform="translate(0, 0)"><path d="M270.4 0C239.6 15.8 208.7 31.5 205.7 55.1C202.7 78.8 227.6 110.2 223.4 129C219.3 147.8 186.2 153.8 165.5 165.5C144.7 177.1 136.4 194.5 123 213C109.6 231.6 91.3 251.4 70 261.2C48.7 271 24.3 270.7 0 270.4L0 0Z" fill="#583267"></path><path d="M202.8 0C179.7 11.8 156.6 23.6 154.3 41.3C152.1 59.1 170.7 82.7 167.6 96.7C164.5 110.8 139.6 115.3 124.1 124.1C108.5 132.9 102.3 145.9 92.3 159.8C82.2 173.7 68.5 188.6 52.5 195.9C36.5 203.2 18.2 203 0 202.8L0 0Z" fill="#862b6d"></path><path d="M135.2 0C119.8 7.9 104.4 15.8 102.9 27.6C101.4 39.4 113.8 55.1 111.7 64.5C109.6 73.9 93.1 76.9 82.7 82.7C72.4 88.6 68.2 97.2 61.5 106.5C54.8 115.8 45.7 125.7 35 130.6C24.3 135.5 12.2 135.3 0 135.2L0 0Z" fill="#b31762"></path><path d="M67.6 0C59.9 3.9 52.2 7.9 51.4 13.8C50.7 19.7 56.9 27.6 55.9 32.2C54.8 36.9 46.5 38.4 41.4 41.4C36.2 44.3 34.1 48.6 30.8 53.3C27.4 57.9 22.8 62.9 17.5 65.3C12.2 67.7 6.1 67.7 0 67.6L0 0Z" fill="#c70a56"></path></g></svg>