<svg id="visual" viewBox="0 0 960 300" width="960" height="300" xmlns="http://www.w3.org/2000/svg" xmlns:xlink="http://www.w3.org/1999/xlink" version="1.1"><rect x="0" y="0" width="960" height="300" fill="#002233"></rect><path d="M0 61L8.8 55.2C17.7 49.3 35.3 37.7 53.2 42.3C71 47 89 68 106.8 74.8C124.7 81.7 142.3 74.3 160 64.2C177.7 54 195.3 41 213.2 41.8C231 42.7 249 57.3 266.8 61.5C284.7 65.7 302.3 59.3 320 52.8C337.7 46.3 355.3 39.7 373.2 46.5C391 53.3 409 73.7 426.8 78.5C444.7 83.3 462.3 72.7 480 70.7C497.7 68.7 515.3 75.3 533.2 78.7C551 82 569 82 586.8 74.5C604.7 67 622.3 52 640 53.8C657.7 55.7 675.3 74.3 693.2 73.5C711 72.7 729 52.3 746.8 47.3C764.7 42.3 782.3 52.7 800 54.3C817.7 56 835.3 49 853.2 49.3C871 49.7 889 57.3 906.8 60.8C924.7 64.3 942.3 63.7 951.2 63.3L960 63L960 0L951.2 0C942.3 0 924.7 0 906.8 0C889 0 871 0 853.2 0C835.3 0 817.7 0 800 0C782.3 0 764.7 0 746.8 0C729 0 711 0 693.2 0C675.3 0 657.7 0 640 0C622.3 0 604.7 0 586.8 0C569 0 551 0 533.2 0C515.3 0 497.7 0 480 0C462.3 0 444.7 0 426.8 0C409 0 391 0 373.2 0C355.3 0 337.7 0 320 0C302.3 0 284.7 0 266.8 0C249 0 231 0 213.2 0C195.3 0 177.7 0 160 0C142.3 0 124.7 0 106.8 0C89 0 71 0 53.2 0C35.3 0 17.7 0 8.8 0L0 0Z" fill="#0066FF" stroke-linecap="round" stroke-linejoin="miter"></path></svg>