<svg id="visual" viewBox="0 0 960 100" width="960" height="100" xmlns="http://www.w3.org/2000/svg" xmlns:xlink="http://www.w3.org/1999/xlink" version="1.1"><path d="M0 70L10.7 70.2C21.3 70.3 42.7 70.7 64 69.7C85.3 68.7 106.7 66.3 128 65.2C149.3 64 170.7 64 192 61.7C213.3 59.3 234.7 54.7 256 53.3C277.3 52 298.7 54 320 54.3C341.3 54.7 362.7 53.3 384 52.3C405.3 51.3 426.7 50.7 448 52.2C469.3 53.7 490.7 57.3 512 60.3C533.3 63.3 554.7 65.7 576 65.5C597.3 65.3 618.7 62.7 640 60.5C661.3 58.3 682.7 56.7 704 56.5C725.3 56.3 746.7 57.7 768 56.8C789.3 56 810.7 53 832 53C853.3 53 874.7 56 896 58.7C917.3 61.3 938.7 63.7 949.3 64.8L960 66L960 0L949.3 0C938.7 0 917.3 0 896 0C874.7 0 853.3 0 832 0C810.7 0 789.3 0 768 0C746.7 0 725.3 0 704 0C682.7 0 661.3 0 640 0C618.7 0 597.3 0 576 0C554.7 0 533.3 0 512 0C490.7 0 469.3 0 448 0C426.7 0 405.3 0 384 0C362.7 0 341.3 0 320 0C298.7 0 277.3 0 256 0C234.7 0 213.3 0 192 0C170.7 0 149.3 0 128 0C106.7 0 85.3 0 64 0C42.7 0 21.3 0 10.7 0L0 0Z" fill="#fcaf3c"></path><path d="M0 30L10.7 31.7C21.3 33.3 42.7 36.7 64 39.8C85.3 43 106.7 46 128 45C149.3 44 170.7 39 192 39.2C213.3 39.3 234.7 44.7 256 47.2C277.3 49.7 298.7 49.3 320 49.5C341.3 49.7 362.7 50.3 384 50C405.3 49.7 426.7 48.3 448 45.2C469.3 42 490.7 37 512 35.7C533.3 34.3 554.7 36.7 576 37C597.3 37.3 618.7 35.7 640 37.7C661.3 39.7 682.7 45.3 704 45.5C725.3 45.7 746.7 40.3 768 40.7C789.3 41 810.7 47 832 48C853.3 49 874.7 45 896 45.2C917.3 45.3 938.7 49.7 949.3 51.8L960 54L960 0L949.3 0C938.7 0 917.3 0 896 0C874.7 0 853.3 0 832 0C810.7 0 789.3 0 768 0C746.7 0 725.3 0 704 0C682.7 0 661.3 0 640 0C618.7 0 597.3 0 576 0C554.7 0 533.3 0 512 0C490.7 0 469.3 0 448 0C426.7 0 405.3 0 384 0C362.7 0 341.3 0 320 0C298.7 0 277.3 0 256 0C234.7 0 213.3 0 192 0C170.7 0 149.3 0 128 0C106.7 0 85.3 0 64 0C42.7 0 21.3 0 10.7 0L0 0Z" fill="#ff6f42"></path><path d="M0 30L10.7 29.7C21.3 29.3 42.7 28.7 64 25.8C85.3 23 106.7 18 128 17.3C149.3 16.7 170.7 20.3 192 22.5C213.3 24.7 234.7 25.3 256 26.5C277.3 27.7 298.7 29.3 320 28.8C341.3 28.3 362.7 25.7 384 22.7C405.3 19.7 426.7 16.3 448 17C469.3 17.7 490.7 22.3 512 24.3C533.3 26.3 554.7 25.7 576 24.2C597.3 22.7 618.7 20.3 640 20.7C661.3 21 682.7 24 704 23C725.3 22 746.7 17 768 16.8C789.3 16.7 810.7 21.3 832 23.3C853.3 25.3 874.7 24.7 896 22.5C917.3 20.3 938.7 16.7 949.3 14.8L960 13L960 0L949.3 0C938.7 0 917.3 0 896 0C874.7 0 853.3 0 832 0C810.7 0 789.3 0 768 0C746.7 0 725.3 0 704 0C682.7 0 661.3 0 640 0C618.7 0 597.3 0 576 0C554.7 0 533.3 0 512 0C490.7 0 469.3 0 448 0C426.7 0 405.3 0 384 0C362.7 0 341.3 0 320 0C298.7 0 277.3 0 256 0C234.7 0 213.3 0 192 0C170.7 0 149.3 0 128 0C106.7 0 85.3 0 64 0C42.7 0 21.3 0 10.7 0L0 0Z" fill="#ff0066"></path></svg>